# xmcd CD database file
#
# Track frame offsets:
#	150
#	24275
#	54100
#	77042
#	96160
#	121445
#	143637
#	165350
#	172100
#	183705
#	210957
#	233980
#	290600
#
# Disc length: 4466 seconds
#
# Revision: 1
# Processed by: cddbd v1.5.2PL0 Copyright (c) Steve Scherf et al.
# Submitted via: CDex 1.51
#
DISCID=a911700d
DTITLE=Peter Gabriel - OVO
DYEAR=1900
DGENRE=Rock
TTITLE0=The Story Of OVO
TTITLE1=Low Light
TTITLE2=The Time Of The Turning
TTITLE3=The Man Who Loved The Earth - The Hand That Sold Shadows
TTITLE4=The Time Of The Turning (Reprise) - The Weavers Reel
TTITLE5=Father, Son
TTITLE6=The Tower That Ate People
TTITLE7=Revenge
TTITLE8=White Ashes
TTITLE9=Downside-Up
TTITLE10=The Nest That Sailed The Sky
TTITLE11=Make Tomorrow
TTITLE12=(Data Track)
EXTD=
EXTT0=
EXTT1=
EXTT2=
EXTT3=
EXTT4=
EXTT5=
EXTT6=
EXTT7=
EXTT8=
EXTT9=
EXTT10=
EXTT11=
EXTT12=
PLAYORDER=
